<mxfile host="app.diagrams.net" modified="2021-04-13T06:36:35.949Z" agent="5.0 (Windows NT 6.1; Win64; x64) AppleWebKit/537.36 (KHTML, like Gecko) Chrome/89.0.4389.114 Safari/537.36" etag="LRsV80S4JRN6nkF6inlA" version="14.5.8" type="github">
  <diagram id="MH71vCaCVumw8iNY9NFp" name="第 1 页">
    <mxGraphModel dx="1422" dy="771" grid="1" gridSize="10" guides="1" tooltips="1" connect="1" arrows="1" fold="1" page="1" pageScale="1" pageWidth="1654" pageHeight="1169" math="0" shadow="0">
      <root>
        <mxCell id="0" />
        <mxCell id="1" parent="0" />
        <mxCell id="kjwz391m1cwt_tZnDFxb-1" value="&lt;font style=&quot;font-size: 20px ; line-height: 100%&quot;&gt;IOT实体关系结构表&lt;/font&gt;" style="swimlane;html=1;childLayout=stackLayout;resizeParent=1;resizeParentMax=0;startSize=50;fontSize=14;spacingTop=0;dashed=1;" vertex="1" parent="1">
          <mxGeometry x="330" y="20" width="980" height="830" as="geometry" />
        </mxCell>
        <mxCell id="kjwz391m1cwt_tZnDFxb-2" value="用户中心" style="swimlane;html=1;startSize=40;fontSize=14;fillColor=#FF9999;spacingTop=0;dashed=1;" vertex="1" parent="kjwz391m1cwt_tZnDFxb-1">
          <mxGeometry y="50" width="300" height="780" as="geometry" />
        </mxCell>
        <mxCell id="kjwz391m1cwt_tZnDFxb-14" style="rounded=0;orthogonalLoop=1;jettySize=auto;html=1;exitX=1;exitY=0.5;exitDx=0;exitDy=0;entryX=0;entryY=0.5;entryDx=0;entryDy=0;fontSize=14;spacingTop=0;" edge="1" parent="kjwz391m1cwt_tZnDFxb-2" source="kjwz391m1cwt_tZnDFxb-8" target="kjwz391m1cwt_tZnDFxb-11">
          <mxGeometry relative="1" as="geometry" />
        </mxCell>
        <mxCell id="kjwz391m1cwt_tZnDFxb-8" value="标准用户信息表" style="rounded=1;whiteSpace=wrap;html=1;fontSize=14;fillColor=#FF66FF;spacingTop=0;" vertex="1" parent="kjwz391m1cwt_tZnDFxb-2">
          <mxGeometry x="50" y="320" width="90" height="40" as="geometry" />
        </mxCell>
        <mxCell id="kjwz391m1cwt_tZnDFxb-9" value="标准用户角色表" style="rounded=1;whiteSpace=wrap;html=1;fontSize=14;fillColor=#FFFF99;spacingTop=0;" vertex="1" parent="kjwz391m1cwt_tZnDFxb-2">
          <mxGeometry x="50" y="390" width="90" height="40" as="geometry" />
        </mxCell>
        <mxCell id="kjwz391m1cwt_tZnDFxb-16" style="edgeStyle=none;rounded=0;orthogonalLoop=1;jettySize=auto;html=1;exitX=1;exitY=0.5;exitDx=0;exitDy=0;entryX=0;entryY=0.5;entryDx=0;entryDy=0;fontSize=14;spacingTop=0;" edge="1" parent="kjwz391m1cwt_tZnDFxb-2" source="kjwz391m1cwt_tZnDFxb-10" target="kjwz391m1cwt_tZnDFxb-12">
          <mxGeometry relative="1" as="geometry" />
        </mxCell>
        <mxCell id="kjwz391m1cwt_tZnDFxb-10" value="标准用户权限表" style="rounded=1;whiteSpace=wrap;html=1;fontSize=14;fillColor=#FFFF99;spacingTop=0;" vertex="1" parent="kjwz391m1cwt_tZnDFxb-2">
          <mxGeometry x="50" y="460" width="90" height="40" as="geometry" />
        </mxCell>
        <mxCell id="kjwz391m1cwt_tZnDFxb-11" value="用户角色表" style="rounded=1;whiteSpace=wrap;html=1;fontSize=14;fillColor=#FFFF99;spacingTop=0;" vertex="1" parent="kjwz391m1cwt_tZnDFxb-2">
          <mxGeometry x="200" y="350" width="90" height="40" as="geometry" />
        </mxCell>
        <mxCell id="kjwz391m1cwt_tZnDFxb-12" value="角色权限表" style="rounded=1;whiteSpace=wrap;html=1;fontSize=14;fillColor=#FFFF99;spacingTop=0;" vertex="1" parent="kjwz391m1cwt_tZnDFxb-2">
          <mxGeometry x="200" y="430" width="90" height="40" as="geometry" />
        </mxCell>
        <mxCell id="kjwz391m1cwt_tZnDFxb-22" style="edgeStyle=none;rounded=0;orthogonalLoop=1;jettySize=auto;html=1;exitX=0.5;exitY=1;exitDx=0;exitDy=0;entryX=0.5;entryY=0;entryDx=0;entryDy=0;fontSize=14;spacingTop=0;" edge="1" parent="kjwz391m1cwt_tZnDFxb-2" source="kjwz391m1cwt_tZnDFxb-18" target="kjwz391m1cwt_tZnDFxb-8">
          <mxGeometry relative="1" as="geometry" />
        </mxCell>
        <mxCell id="kjwz391m1cwt_tZnDFxb-23" value="关联" style="edgeLabel;html=1;align=center;verticalAlign=middle;resizable=0;points=[];fontSize=14;spacingTop=0;" vertex="1" connectable="0" parent="kjwz391m1cwt_tZnDFxb-22">
          <mxGeometry x="-0.208" relative="1" as="geometry">
            <mxPoint as="offset" />
          </mxGeometry>
        </mxCell>
        <mxCell id="kjwz391m1cwt_tZnDFxb-18" value="开发者账户信息" style="rounded=1;whiteSpace=wrap;html=1;fontSize=14;fillColor=#FF66FF;spacingTop=0;" vertex="1" parent="kjwz391m1cwt_tZnDFxb-2">
          <mxGeometry x="50" y="170" width="90" height="40" as="geometry" />
        </mxCell>
        <mxCell id="kjwz391m1cwt_tZnDFxb-19" value="开发者企业信息" style="rounded=1;whiteSpace=wrap;html=1;fontSize=14;fillColor=#FFFF99;spacingTop=0;" vertex="1" parent="kjwz391m1cwt_tZnDFxb-2">
          <mxGeometry x="200" y="170" width="90" height="40" as="geometry" />
        </mxCell>
        <mxCell id="kjwz391m1cwt_tZnDFxb-20" style="edgeStyle=none;rounded=0;orthogonalLoop=1;jettySize=auto;html=1;exitX=1;exitY=0.5;exitDx=0;exitDy=0;entryX=0;entryY=0.5;entryDx=0;entryDy=0;fontSize=14;spacingTop=0;" edge="1" parent="kjwz391m1cwt_tZnDFxb-2" source="kjwz391m1cwt_tZnDFxb-18" target="kjwz391m1cwt_tZnDFxb-19">
          <mxGeometry x="380" y="210" as="geometry" />
        </mxCell>
        <mxCell id="kjwz391m1cwt_tZnDFxb-21" value="关联" style="edgeLabel;html=1;align=center;verticalAlign=middle;resizable=0;points=[];fontSize=14;spacingTop=0;" vertex="1" connectable="0" parent="kjwz391m1cwt_tZnDFxb-20">
          <mxGeometry x="-0.5155" relative="1" as="geometry">
            <mxPoint x="15.52" as="offset" />
          </mxGeometry>
        </mxCell>
        <mxCell id="kjwz391m1cwt_tZnDFxb-138" value="开发者账户信息" style="rounded=1;whiteSpace=wrap;html=1;fontSize=14;fillColor=#FF66FF;spacingTop=0;" vertex="1" parent="kjwz391m1cwt_tZnDFxb-2">
          <mxGeometry x="50" y="170" width="90" height="40" as="geometry" />
        </mxCell>
        <mxCell id="kjwz391m1cwt_tZnDFxb-139" value="标准用户信息表" style="rounded=1;whiteSpace=wrap;html=1;fontSize=14;fillColor=#FF66FF;spacingTop=0;" vertex="1" parent="kjwz391m1cwt_tZnDFxb-2">
          <mxGeometry x="50" y="320" width="90" height="40" as="geometry" />
        </mxCell>
        <mxCell id="kjwz391m1cwt_tZnDFxb-140" value="开发者账户信息" style="rounded=1;whiteSpace=wrap;html=1;fontSize=14;fillColor=#FFFF99;spacingTop=0;" vertex="1" parent="kjwz391m1cwt_tZnDFxb-2">
          <mxGeometry x="50" y="170" width="90" height="40" as="geometry" />
        </mxCell>
        <mxCell id="kjwz391m1cwt_tZnDFxb-141" value="标准用户信息表" style="rounded=1;whiteSpace=wrap;html=1;fontSize=14;fillColor=#FFFF99;spacingTop=0;" vertex="1" parent="kjwz391m1cwt_tZnDFxb-2">
          <mxGeometry x="50" y="320" width="90" height="40" as="geometry" />
        </mxCell>
        <mxCell id="kjwz391m1cwt_tZnDFxb-15" style="edgeStyle=none;rounded=0;orthogonalLoop=1;jettySize=auto;html=1;exitX=1;exitY=0.5;exitDx=0;exitDy=0;fontSize=14;spacingTop=0;entryX=0;entryY=0.5;entryDx=0;entryDy=0;" edge="1" parent="kjwz391m1cwt_tZnDFxb-2" source="kjwz391m1cwt_tZnDFxb-9" target="kjwz391m1cwt_tZnDFxb-11">
          <mxGeometry relative="1" as="geometry">
            <mxPoint x="180" y="369.9999999999999" as="targetPoint" />
          </mxGeometry>
        </mxCell>
        <mxCell id="kjwz391m1cwt_tZnDFxb-17" style="edgeStyle=none;rounded=0;orthogonalLoop=1;jettySize=auto;html=1;exitX=1;exitY=0.5;exitDx=0;exitDy=0;fontSize=14;spacingTop=0;entryX=0;entryY=0.5;entryDx=0;entryDy=0;" edge="1" parent="kjwz391m1cwt_tZnDFxb-2" source="kjwz391m1cwt_tZnDFxb-9" target="kjwz391m1cwt_tZnDFxb-12">
          <mxGeometry relative="1" as="geometry">
            <mxPoint x="180" y="449.9999999999999" as="targetPoint" />
          </mxGeometry>
        </mxCell>
        <mxCell id="kjwz391m1cwt_tZnDFxb-3" value="设备中心" style="swimlane;html=1;startSize=40;fontSize=14;fillColor=#99FF99;spacingTop=0;dashed=1;" vertex="1" parent="kjwz391m1cwt_tZnDFxb-1">
          <mxGeometry x="300" y="50" width="510" height="780" as="geometry" />
        </mxCell>
        <mxCell id="kjwz391m1cwt_tZnDFxb-39" value="设备品牌表" style="rounded=1;whiteSpace=wrap;html=1;fontSize=14;fillColor=#99FF33;spacingTop=0;" vertex="1" parent="kjwz391m1cwt_tZnDFxb-3">
          <mxGeometry x="50" y="540" width="90" height="40" as="geometry" />
        </mxCell>
        <mxCell id="kjwz391m1cwt_tZnDFxb-46" style="edgeStyle=orthogonalEdgeStyle;rounded=0;orthogonalLoop=1;jettySize=auto;html=1;exitX=0.5;exitY=0;exitDx=0;exitDy=0;entryX=0.5;entryY=1;entryDx=0;entryDy=0;entryPerimeter=0;fontSize=14;spacingTop=0;" edge="1" parent="kjwz391m1cwt_tZnDFxb-3" source="kjwz391m1cwt_tZnDFxb-40" target="kjwz391m1cwt_tZnDFxb-28">
          <mxGeometry relative="1" as="geometry" />
        </mxCell>
        <mxCell id="kjwz391m1cwt_tZnDFxb-47" value="品类关联一个二级分类id" style="edgeLabel;html=1;align=center;verticalAlign=middle;resizable=0;points=[];fontSize=14;spacingTop=0;" vertex="1" connectable="0" parent="kjwz391m1cwt_tZnDFxb-46">
          <mxGeometry x="-0.2" y="2" relative="1" as="geometry">
            <mxPoint as="offset" />
          </mxGeometry>
        </mxCell>
        <mxCell id="kjwz391m1cwt_tZnDFxb-40" value="设备品类表" style="rounded=1;whiteSpace=wrap;html=1;fontSize=14;fillColor=#FFB366;spacingTop=0;" vertex="1" parent="kjwz391m1cwt_tZnDFxb-3">
          <mxGeometry x="50" y="340" width="90" height="40" as="geometry" />
        </mxCell>
        <mxCell id="kjwz391m1cwt_tZnDFxb-48" style="edgeStyle=orthogonalEdgeStyle;rounded=0;orthogonalLoop=1;jettySize=auto;html=1;exitX=0.5;exitY=0;exitDx=0;exitDy=0;entryX=0.5;entryY=1;entryDx=0;entryDy=0;fontSize=14;spacingTop=0;" edge="1" parent="kjwz391m1cwt_tZnDFxb-3" source="kjwz391m1cwt_tZnDFxb-45" target="kjwz391m1cwt_tZnDFxb-40">
          <mxGeometry relative="1" as="geometry" />
        </mxCell>
        <mxCell id="kjwz391m1cwt_tZnDFxb-49" value="关联一个品类" style="edgeLabel;html=1;align=center;verticalAlign=middle;resizable=0;points=[];fontSize=14;spacingTop=0;" vertex="1" connectable="0" parent="kjwz391m1cwt_tZnDFxb-48">
          <mxGeometry x="-0.2714" y="1" relative="1" as="geometry">
            <mxPoint x="1" y="-8" as="offset" />
          </mxGeometry>
        </mxCell>
        <mxCell id="kjwz391m1cwt_tZnDFxb-52" style="edgeStyle=orthogonalEdgeStyle;rounded=0;orthogonalLoop=1;jettySize=auto;html=1;exitX=0.5;exitY=1;exitDx=0;exitDy=0;entryX=0.5;entryY=0;entryDx=0;entryDy=0;fontSize=14;spacingTop=0;" edge="1" parent="kjwz391m1cwt_tZnDFxb-3" source="kjwz391m1cwt_tZnDFxb-45" target="kjwz391m1cwt_tZnDFxb-39">
          <mxGeometry relative="1" as="geometry" />
        </mxCell>
        <mxCell id="kjwz391m1cwt_tZnDFxb-53" value="关联一个品牌" style="edgeLabel;html=1;align=center;verticalAlign=middle;resizable=0;points=[];fontSize=14;spacingTop=0;" vertex="1" connectable="0" parent="kjwz391m1cwt_tZnDFxb-52">
          <mxGeometry y="-2" relative="1" as="geometry">
            <mxPoint as="offset" />
          </mxGeometry>
        </mxCell>
        <mxCell id="kjwz391m1cwt_tZnDFxb-73" style="edgeStyle=none;rounded=0;orthogonalLoop=1;jettySize=auto;html=1;exitX=1;exitY=0.5;exitDx=0;exitDy=0;entryX=0;entryY=0.5;entryDx=0;entryDy=0;dashed=1;fontSize=14;spacingTop=0;" edge="1" parent="kjwz391m1cwt_tZnDFxb-3" source="kjwz391m1cwt_tZnDFxb-45" target="kjwz391m1cwt_tZnDFxb-67">
          <mxGeometry relative="1" as="geometry" />
        </mxCell>
        <mxCell id="kjwz391m1cwt_tZnDFxb-45" value="设备型号表" style="rounded=1;whiteSpace=wrap;html=1;fontSize=14;fillColor=#FFB366;spacingTop=0;" vertex="1" parent="kjwz391m1cwt_tZnDFxb-3">
          <mxGeometry x="50" y="440" width="90" height="40" as="geometry" />
        </mxCell>
        <mxCell id="kjwz391m1cwt_tZnDFxb-54" style="rounded=0;orthogonalLoop=1;jettySize=auto;html=1;exitX=1;exitY=0.5;exitDx=0;exitDy=0;entryX=0.5;entryY=1;entryDx=0;entryDy=0;fontSize=14;spacingTop=0;" edge="1" parent="kjwz391m1cwt_tZnDFxb-3" source="kjwz391m1cwt_tZnDFxb-32" target="kjwz391m1cwt_tZnDFxb-36">
          <mxGeometry relative="1" as="geometry" />
        </mxCell>
        <mxCell id="kjwz391m1cwt_tZnDFxb-32" value="指令集表" style="rounded=1;whiteSpace=wrap;html=1;fontSize=14;fillColor=#99FF33;spacingTop=0;" vertex="1" parent="kjwz391m1cwt_tZnDFxb-3">
          <mxGeometry x="210" y="200" width="90" height="40" as="geometry" />
        </mxCell>
        <mxCell id="kjwz391m1cwt_tZnDFxb-55" style="edgeStyle=none;rounded=0;orthogonalLoop=1;jettySize=auto;html=1;exitX=0;exitY=0.5;exitDx=0;exitDy=0;fontSize=14;entryX=0.5;entryY=1;entryDx=0;entryDy=0;spacingTop=0;" edge="1" parent="kjwz391m1cwt_tZnDFxb-3" source="kjwz391m1cwt_tZnDFxb-35" target="kjwz391m1cwt_tZnDFxb-36">
          <mxGeometry relative="1" as="geometry" />
        </mxCell>
        <mxCell id="kjwz391m1cwt_tZnDFxb-35" value="指令信息表" style="rounded=1;whiteSpace=wrap;html=1;fontSize=14;fillColor=#99FF33;spacingTop=0;" vertex="1" parent="kjwz391m1cwt_tZnDFxb-3">
          <mxGeometry x="380" y="200" width="90" height="40" as="geometry" />
        </mxCell>
        <mxCell id="kjwz391m1cwt_tZnDFxb-36" value="指令集指令&lt;br style=&quot;font-size: 14px;&quot;&gt;关联表" style="rounded=1;whiteSpace=wrap;html=1;fontSize=14;fillColor=#99FF33;spacingTop=0;" vertex="1" parent="kjwz391m1cwt_tZnDFxb-3">
          <mxGeometry x="290" y="135" width="90" height="40" as="geometry" />
        </mxCell>
        <mxCell id="kjwz391m1cwt_tZnDFxb-74" style="edgeStyle=none;rounded=0;orthogonalLoop=1;jettySize=auto;html=1;exitX=1;exitY=0.5;exitDx=0;exitDy=0;entryX=0;entryY=0.5;entryDx=0;entryDy=0;dashed=1;fontSize=14;spacingTop=0;" edge="1" parent="kjwz391m1cwt_tZnDFxb-3" source="kjwz391m1cwt_tZnDFxb-67" target="kjwz391m1cwt_tZnDFxb-64">
          <mxGeometry relative="1" as="geometry" />
        </mxCell>
        <mxCell id="kjwz391m1cwt_tZnDFxb-75" style="edgeStyle=none;rounded=0;orthogonalLoop=1;jettySize=auto;html=1;exitX=1;exitY=0.5;exitDx=0;exitDy=0;entryX=0;entryY=0.5;entryDx=0;entryDy=0;dashed=1;fontSize=14;spacingTop=0;" edge="1" parent="kjwz391m1cwt_tZnDFxb-3" source="kjwz391m1cwt_tZnDFxb-67" target="kjwz391m1cwt_tZnDFxb-65">
          <mxGeometry relative="1" as="geometry" />
        </mxCell>
        <mxCell id="kjwz391m1cwt_tZnDFxb-76" style="edgeStyle=none;rounded=0;orthogonalLoop=1;jettySize=auto;html=1;exitX=1;exitY=0.5;exitDx=0;exitDy=0;entryX=0;entryY=0.5;entryDx=0;entryDy=0;dashed=1;fontSize=14;spacingTop=0;" edge="1" parent="kjwz391m1cwt_tZnDFxb-3" source="kjwz391m1cwt_tZnDFxb-67" target="kjwz391m1cwt_tZnDFxb-62">
          <mxGeometry relative="1" as="geometry" />
        </mxCell>
        <mxCell id="kjwz391m1cwt_tZnDFxb-67" value="&amp;nbsp; &amp;nbsp; 抽象出一个指令集" style="shape=step;perimeter=stepPerimeter;whiteSpace=wrap;html=1;fixedSize=1;dashed=1;strokeColor=#CCCCCC;fontSize=14;spacingTop=0;" vertex="1" parent="kjwz391m1cwt_tZnDFxb-3">
          <mxGeometry x="190" y="445" width="130" height="30" as="geometry" />
        </mxCell>
        <mxCell id="kjwz391m1cwt_tZnDFxb-77" value="" style="group;fontSize=14;spacingTop=0;" vertex="1" connectable="0" parent="kjwz391m1cwt_tZnDFxb-3">
          <mxGeometry x="360" y="405" width="130" height="110" as="geometry" />
        </mxCell>
        <mxCell id="kjwz391m1cwt_tZnDFxb-62" value="自定义指令" style="shape=step;perimeter=stepPerimeter;whiteSpace=wrap;html=1;fixedSize=1;dashed=1;strokeColor=#CCCCCC;fontSize=14;spacingTop=0;" vertex="1" parent="kjwz391m1cwt_tZnDFxb-77">
          <mxGeometry y="80" width="130" height="30" as="geometry" />
        </mxCell>
        <mxCell id="kjwz391m1cwt_tZnDFxb-64" value="继承的标准指令" style="shape=step;perimeter=stepPerimeter;whiteSpace=wrap;html=1;fixedSize=1;dashed=1;strokeColor=#CCCCCC;fontSize=14;spacingTop=0;" vertex="1" parent="kjwz391m1cwt_tZnDFxb-77">
          <mxGeometry width="130" height="30" as="geometry" />
        </mxCell>
        <mxCell id="kjwz391m1cwt_tZnDFxb-65" value="继承的标准指令" style="shape=step;perimeter=stepPerimeter;whiteSpace=wrap;html=1;fixedSize=1;dashed=1;strokeColor=#CCCCCC;fontSize=14;spacingTop=0;" vertex="1" parent="kjwz391m1cwt_tZnDFxb-77">
          <mxGeometry y="40" width="130" height="30" as="geometry" />
        </mxCell>
        <mxCell id="kjwz391m1cwt_tZnDFxb-78" value="" style="shape=flexArrow;endArrow=classic;html=1;dashed=1;exitX=0.5;exitY=0;exitDx=0;exitDy=0;entryX=0.5;entryY=1;entryDx=0;entryDy=0;fontSize=14;spacingTop=0;" edge="1" parent="kjwz391m1cwt_tZnDFxb-3" source="kjwz391m1cwt_tZnDFxb-67" target="kjwz391m1cwt_tZnDFxb-32">
          <mxGeometry width="50" height="50" relative="1" as="geometry">
            <mxPoint x="260" y="390" as="sourcePoint" />
            <mxPoint x="310" y="340" as="targetPoint" />
          </mxGeometry>
        </mxCell>
        <mxCell id="kjwz391m1cwt_tZnDFxb-79" value="直接复用，添加标识" style="edgeLabel;html=1;align=center;verticalAlign=middle;resizable=0;points=[];fontSize=14;spacingTop=0;" vertex="1" connectable="0" parent="kjwz391m1cwt_tZnDFxb-78">
          <mxGeometry x="0.1317" y="3" relative="1" as="geometry">
            <mxPoint as="offset" />
          </mxGeometry>
        </mxCell>
        <mxCell id="kjwz391m1cwt_tZnDFxb-80" value="" style="shape=flexArrow;endArrow=classic;html=1;dashed=1;exitX=0.5;exitY=0;exitDx=0;exitDy=0;entryX=0.5;entryY=1;entryDx=0;entryDy=0;fontSize=14;spacingTop=0;" edge="1" parent="kjwz391m1cwt_tZnDFxb-3" source="kjwz391m1cwt_tZnDFxb-64" target="kjwz391m1cwt_tZnDFxb-35">
          <mxGeometry width="50" height="50" relative="1" as="geometry">
            <mxPoint x="444.5" y="465" as="sourcePoint" />
            <mxPoint x="444.5" y="260" as="targetPoint" />
          </mxGeometry>
        </mxCell>
        <mxCell id="kjwz391m1cwt_tZnDFxb-81" value="直接复用，添加标识" style="edgeLabel;html=1;align=center;verticalAlign=middle;resizable=0;points=[];fontSize=14;spacingTop=0;" vertex="1" connectable="0" parent="kjwz391m1cwt_tZnDFxb-80">
          <mxGeometry x="0.1317" y="3" relative="1" as="geometry">
            <mxPoint as="offset" />
          </mxGeometry>
        </mxCell>
        <mxCell id="kjwz391m1cwt_tZnDFxb-132" style="edgeStyle=orthogonalEdgeStyle;rounded=0;orthogonalLoop=1;jettySize=auto;html=1;exitX=1;exitY=0.5;exitDx=0;exitDy=0;entryX=0.589;entryY=0.975;entryDx=0;entryDy=0;entryPerimeter=0;fontSize=14;" edge="1" parent="kjwz391m1cwt_tZnDFxb-3" source="kjwz391m1cwt_tZnDFxb-124" target="kjwz391m1cwt_tZnDFxb-116">
          <mxGeometry relative="1" as="geometry" />
        </mxCell>
        <mxCell id="kjwz391m1cwt_tZnDFxb-133" value="关联设备信息表" style="edgeLabel;html=1;align=center;verticalAlign=middle;resizable=0;points=[];fontSize=14;" vertex="1" connectable="0" parent="kjwz391m1cwt_tZnDFxb-132">
          <mxGeometry x="-0.2093" y="-4" relative="1" as="geometry">
            <mxPoint x="18" y="-24" as="offset" />
          </mxGeometry>
        </mxCell>
        <mxCell id="kjwz391m1cwt_tZnDFxb-124" value="用户设备信息绑定表" style="rounded=1;whiteSpace=wrap;html=1;fontSize=14;fillColor=#FFFF99;spacingTop=0;" vertex="1" parent="kjwz391m1cwt_tZnDFxb-3">
          <mxGeometry x="251" y="720" width="90" height="40" as="geometry" />
        </mxCell>
        <mxCell id="kjwz391m1cwt_tZnDFxb-116" value="设备信息表" style="rounded=1;whiteSpace=wrap;html=1;fontSize=14;fillColor=#FFFF99;spacingTop=0;" vertex="1" parent="kjwz391m1cwt_tZnDFxb-3">
          <mxGeometry x="356" y="640" width="90" height="40" as="geometry" />
        </mxCell>
        <mxCell id="kjwz391m1cwt_tZnDFxb-130" style="rounded=0;orthogonalLoop=1;jettySize=auto;html=1;exitX=0.5;exitY=0;exitDx=0;exitDy=0;entryX=0.5;entryY=1;entryDx=0;entryDy=0;fontSize=14;" edge="1" parent="kjwz391m1cwt_tZnDFxb-3" source="kjwz391m1cwt_tZnDFxb-117" target="kjwz391m1cwt_tZnDFxb-118">
          <mxGeometry relative="1" as="geometry" />
        </mxCell>
        <mxCell id="kjwz391m1cwt_tZnDFxb-117" value="用户设备分组表" style="rounded=1;whiteSpace=wrap;html=1;fontSize=14;fillColor=#FFFF99;spacingTop=0;" vertex="1" parent="kjwz391m1cwt_tZnDFxb-3">
          <mxGeometry x="146" y="640" width="110" height="40" as="geometry" />
        </mxCell>
        <mxCell id="kjwz391m1cwt_tZnDFxb-118" value="分组设备信息表" style="rounded=1;whiteSpace=wrap;html=1;fontSize=14;fillColor=#FFFF99;spacingTop=0;" vertex="1" parent="kjwz391m1cwt_tZnDFxb-3">
          <mxGeometry x="242" y="540" width="108" height="40" as="geometry" />
        </mxCell>
        <mxCell id="kjwz391m1cwt_tZnDFxb-131" style="edgeStyle=none;rounded=0;orthogonalLoop=1;jettySize=auto;html=1;exitX=0.5;exitY=0;exitDx=0;exitDy=0;fontSize=14;entryX=0.5;entryY=1;entryDx=0;entryDy=0;" edge="1" parent="kjwz391m1cwt_tZnDFxb-3" source="kjwz391m1cwt_tZnDFxb-116" target="kjwz391m1cwt_tZnDFxb-118">
          <mxGeometry relative="1" as="geometry">
            <mxPoint x="300" y="550" as="targetPoint" />
          </mxGeometry>
        </mxCell>
        <mxCell id="kjwz391m1cwt_tZnDFxb-150" value="必须默认&lt;br&gt;关联一个&lt;br&gt;指令集" style="edgeStyle=orthogonalEdgeStyle;rounded=0;orthogonalLoop=1;jettySize=auto;html=1;exitX=1;exitY=0.5;exitDx=0;exitDy=0;entryX=0;entryY=0.5;entryDx=0;entryDy=0;fontSize=14;" edge="1" parent="kjwz391m1cwt_tZnDFxb-3" source="kjwz391m1cwt_tZnDFxb-25" target="kjwz391m1cwt_tZnDFxb-147">
          <mxGeometry relative="1" as="geometry" />
        </mxCell>
        <mxCell id="kjwz391m1cwt_tZnDFxb-25" value="设备类型表" style="rounded=1;whiteSpace=wrap;html=1;fontSize=14;fillColor=#99FF33;spacingTop=0;" vertex="1" parent="kjwz391m1cwt_tZnDFxb-3">
          <mxGeometry x="50" y="90" width="90" height="40" as="geometry" />
        </mxCell>
        <mxCell id="kjwz391m1cwt_tZnDFxb-28" value="设备大类、小类的二级分类树" style="shape=note;whiteSpace=wrap;html=1;backgroundOutline=1;darkOpacity=0.05;fontSize=14;spacingTop=0;" vertex="1" parent="kjwz391m1cwt_tZnDFxb-3">
          <mxGeometry x="52.5" y="130" width="85" height="50" as="geometry" />
        </mxCell>
        <mxCell id="kjwz391m1cwt_tZnDFxb-149" style="edgeStyle=orthogonalEdgeStyle;rounded=0;orthogonalLoop=1;jettySize=auto;html=1;entryX=0.5;entryY=0;entryDx=0;entryDy=0;fontSize=14;" edge="1" parent="kjwz391m1cwt_tZnDFxb-3" source="kjwz391m1cwt_tZnDFxb-147" target="kjwz391m1cwt_tZnDFxb-32">
          <mxGeometry relative="1" as="geometry" />
        </mxCell>
        <mxCell id="kjwz391m1cwt_tZnDFxb-147" value="设备类型&lt;br&gt;指令集表" style="rounded=1;whiteSpace=wrap;html=1;fontSize=14;fillColor=#99FF33;spacingTop=0;" vertex="1" parent="kjwz391m1cwt_tZnDFxb-3">
          <mxGeometry x="210" y="90" width="90" height="40" as="geometry" />
        </mxCell>
        <mxCell id="kjwz391m1cwt_tZnDFxb-127" style="edgeStyle=orthogonalEdgeStyle;rounded=0;orthogonalLoop=1;jettySize=auto;html=1;exitX=0;exitY=0.5;exitDx=0;exitDy=0;entryX=0;entryY=0.5;entryDx=0;entryDy=0;fontSize=14;spacingTop=0;" edge="1" parent="kjwz391m1cwt_tZnDFxb-1" source="kjwz391m1cwt_tZnDFxb-124" target="kjwz391m1cwt_tZnDFxb-8">
          <mxGeometry relative="1" as="geometry" />
        </mxCell>
        <mxCell id="kjwz391m1cwt_tZnDFxb-128" value="关联用户信息" style="edgeLabel;html=1;align=center;verticalAlign=middle;resizable=0;points=[];fontSize=14;spacingTop=0;" vertex="1" connectable="0" parent="kjwz391m1cwt_tZnDFxb-127">
          <mxGeometry x="-0.6958" y="1" relative="1" as="geometry">
            <mxPoint as="offset" />
          </mxGeometry>
        </mxCell>
        <mxCell id="kjwz391m1cwt_tZnDFxb-134" style="edgeStyle=orthogonalEdgeStyle;rounded=0;orthogonalLoop=1;jettySize=auto;html=1;exitX=0.5;exitY=1;exitDx=0;exitDy=0;entryX=1;entryY=0.5;entryDx=0;entryDy=0;fontSize=14;" edge="1" parent="kjwz391m1cwt_tZnDFxb-1" source="kjwz391m1cwt_tZnDFxb-24" target="kjwz391m1cwt_tZnDFxb-116">
          <mxGeometry relative="1" as="geometry" />
        </mxCell>
        <mxCell id="kjwz391m1cwt_tZnDFxb-135" value="设备的消息账号&lt;br&gt;关联设备信息" style="edgeLabel;html=1;align=center;verticalAlign=middle;resizable=0;points=[];fontSize=14;" vertex="1" connectable="0" parent="kjwz391m1cwt_tZnDFxb-134">
          <mxGeometry x="-0.0663" y="4" relative="1" as="geometry">
            <mxPoint as="offset" />
          </mxGeometry>
        </mxCell>
        <mxCell id="kjwz391m1cwt_tZnDFxb-136" style="edgeStyle=orthogonalEdgeStyle;rounded=0;orthogonalLoop=1;jettySize=auto;html=1;exitX=0.5;exitY=0;exitDx=0;exitDy=0;entryX=0.5;entryY=0;entryDx=0;entryDy=0;fontSize=14;" edge="1" parent="kjwz391m1cwt_tZnDFxb-1" source="kjwz391m1cwt_tZnDFxb-24" target="kjwz391m1cwt_tZnDFxb-18">
          <mxGeometry relative="1" as="geometry">
            <Array as="points">
              <mxPoint x="895" y="110" />
              <mxPoint x="95" y="110" />
            </Array>
          </mxGeometry>
        </mxCell>
        <mxCell id="kjwz391m1cwt_tZnDFxb-137" value="用户的消息账号&lt;br&gt;关联用户信息" style="edgeLabel;html=1;align=center;verticalAlign=middle;resizable=0;points=[];fontSize=14;" vertex="1" connectable="0" parent="kjwz391m1cwt_tZnDFxb-136">
          <mxGeometry x="-0.4789" y="-3" relative="1" as="geometry">
            <mxPoint x="163" y="53" as="offset" />
          </mxGeometry>
        </mxCell>
        <mxCell id="kjwz391m1cwt_tZnDFxb-4" value="消息中心" style="swimlane;html=1;startSize=40;fontSize=14;fillColor=#CCCCFF;spacingTop=0;dashed=1;glass=0;" vertex="1" parent="kjwz391m1cwt_tZnDFxb-1">
          <mxGeometry x="810" y="50" width="170" height="780" as="geometry" />
        </mxCell>
        <mxCell id="kjwz391m1cwt_tZnDFxb-24" value="消息账号表" style="rounded=1;whiteSpace=wrap;html=1;fontSize=14;fillColor=#FFFF99;spacingTop=0;" vertex="1" parent="kjwz391m1cwt_tZnDFxb-4">
          <mxGeometry x="40" y="170" width="90" height="40" as="geometry" />
        </mxCell>
        <mxCell id="kjwz391m1cwt_tZnDFxb-143" value="超级管理&lt;br&gt;员操作" style="rounded=1;whiteSpace=wrap;html=1;fontSize=14;fillColor=#99FF33;spacingTop=0;" vertex="1" parent="1">
          <mxGeometry x="1350" y="800" width="90" height="40" as="geometry" />
        </mxCell>
        <mxCell id="kjwz391m1cwt_tZnDFxb-144" value="开发者操作" style="rounded=1;whiteSpace=wrap;html=1;fontSize=14;fillColor=#FFB366;spacingTop=0;" vertex="1" parent="1">
          <mxGeometry x="1450" y="800" width="90" height="40" as="geometry" />
        </mxCell>
        <mxCell id="kjwz391m1cwt_tZnDFxb-145" value="&lt;font style=&quot;font-size: 18px&quot;&gt;&lt;b&gt;颜色说明：&lt;/b&gt;&lt;/font&gt;" style="text;html=1;strokeColor=none;fillColor=none;align=center;verticalAlign=middle;whiteSpace=wrap;rounded=0;glass=0;dashed=1;fontSize=14;" vertex="1" parent="1">
          <mxGeometry x="1320" y="770" width="100" height="20" as="geometry" />
        </mxCell>
      </root>
    </mxGraphModel>
  </diagram>
</mxfile>
